<?xml version="1.0" encoding="UTF-8"?>
<svg version="1.1" xmlns="http://www.w3.org/2000/svg" width="499" height="499">
<path d="M0 0 C0.95473709 -0.00426498 1.90947418 -0.00852997 2.8931427 -0.01292419 C3.94408112 -0.01247101 4.99501953 -0.01201782 6.07780457 -0.0115509 C7.1819722 -0.01490952 8.28613983 -0.01826813 9.42376709 -0.02172852 C13.0899517 -0.03126147 16.75609074 -0.0331829 20.42228699 -0.03425598 C22.96335876 -0.03746726 25.50443034 -0.04083123 28.04550171 -0.04434204 C33.37951664 -0.05033941 38.71351448 -0.05222407 44.04753113 -0.05158997 C50.20957788 -0.05098965 56.37153696 -0.06153134 62.53356153 -0.07733363 C68.46237609 -0.09199544 74.39116393 -0.09557772 80.31999779 -0.09498024 C82.84180242 -0.09616186 85.36360767 -0.10059375 87.88540077 -0.10831261 C91.41184916 -0.11809444 94.9380714 -0.1152413 98.46452332 -0.10920715 C100.0318219 -0.11763641 100.0318219 -0.11763641 101.63078308 -0.12623596 C102.59397964 -0.12204147 103.55717621 -0.11784698 104.54956055 -0.11352539 C105.38302915 -0.11407016 106.21649775 -0.11461493 107.07522297 -0.1151762 C113.23271787 0.52604202 116.12765377 3.49410858 119.96916199 7.98918152 C124.52705309 13.6291209 128.7343059 19.5489609 133.00431824 25.40715027 C137.37972827 31.40450016 141.91191213 37.27071181 146.46525574 43.13371277 C149.80581212 47.46151262 153.13822835 51.79550899 156.46525574 56.13371277 C157.05081238 56.89716003 157.63636902 57.6606073 158.2396698 58.44718933 C165.52147726 67.95018869 172.75774462 77.48098279 179.84025574 87.13371277 C182.04687596 90.13497712 184.25517117 93.13499864 186.46525574 96.13371277 C187.21258972 97.14909119 187.21258972 97.14909119 187.97502136 98.1849823 C189.33797193 100.02883864 190.71185493 101.86389121 192.09025574 103.69621277 C192.84564636 104.70812683 193.60103699 105.72004089 194.37931824 106.76261902 C196.3524719 109.00551091 197.70808112 110.07949895 200.46525574 111.13371277 C206.64000377 104.52038451 212.6082058 97.83339401 218.28556824 90.78215027 C220.44282972 88.16096158 222.67836574 85.64216996 224.96525574 83.13371277 C230.2508155 77.33068562 235.19854386 71.25883069 240.07072449 65.10636902 C241.16076705 63.74781157 242.30588706 62.43361099 243.46525574 61.13371277 C244.12525574 61.13371277 244.78525574 61.13371277 245.46525574 61.13371277 C245.69084167 60.58843933 245.91642761 60.04316589 246.14884949 59.48136902 C247.85668529 56.43564404 250.13576453 54.08046244 252.52775574 51.57121277 C256.09702575 47.7600766 259.52227409 43.90892281 262.77775574 39.82121277 C267.03228521 34.52787538 271.63117033 29.62401058 276.29899597 24.69889832 C280.53214894 20.20724095 284.45205792 15.59864046 288.20744324 10.69621277 C288.95252136 9.85058777 289.69759949 9.00496277 290.46525574 8.13371277 C290.9694101 7.55375046 291.47356445 6.97378815 291.99299622 6.37625122 C295.88168478 2.41579058 298.7270198 0.66649643 304.33049011 0.33903503 C306.57363402 0.34013265 308.81698742 0.37905812 311.05900574 0.45011902 C312.24627258 0.46002365 313.43353943 0.46992828 314.65678406 0.48013306 C318.42756152 0.51913907 322.19536669 0.60694618 325.96525574 0.69621277 C328.5303177 0.73134395 331.09542554 0.76327976 333.66056824 0.79191589 C339.92980169 0.8688563 346.19731634 0.98581079 352.46525574 1.13371277 C352.85820654 2.78733865 353.18802566 4.45680121 353.46525574 6.13371277 C352.34806824 7.76652527 352.34806824 7.76652527 350.59025574 9.25871277 C347.44770679 12.13314742 344.75453076 15.12055961 342.09025574 18.44621277 C338.44526527 22.97465008 334.64050353 27.29794472 330.72306824 31.59074402 C328.34293261 34.27148501 326.08793733 37.02875411 323.84025574 39.82121277 C321.33552343 42.9196273 318.83134464 45.86668224 315.96525574 48.63371277 C313.18020152 51.32338842 310.76026957 54.17339549 308.34025574 57.19621277 C304.72469013 61.6940751 300.92243482 65.93457261 296.96525574 70.13371277 C292.27743629 75.11291528 287.85291308 80.21554192 283.57463074 85.55558777 C280.73745176 89.02325097 277.71793446 92.30836161 274.69963074 95.61808777 C272.45344007 98.14701572 270.32994356 100.74421191 268.21525574 103.38371277 C264.11703051 108.45634119 259.73416422 113.19279271 255.26750183 117.93693542 C251.21185313 122.26778462 247.43467018 126.759039 243.73478699 131.39933777 C240.68078294 135.07886071 237.42198099 138.55515189 234.09367371 141.98771667 C231.40590551 144.8278992 229.24048137 147.24518097 228.46525574 151.13371277 C229.55917196 153.60579301 229.55917196 153.60579301 231.59025574 155.94621277 C232.3443573 156.91300964 233.09845886 157.87980652 233.87541199 158.87590027 C234.29451843 159.40022644 234.71362488 159.92455261 235.14543152 160.46476746 C236.99885017 162.80845409 238.77756392 165.20517044 240.56144714 167.60197449 C242.08156565 169.64347896 243.61031898 171.67827064 245.14103699 173.71183777 C247.43449502 176.76065089 249.72312621 179.81300397 252.00822449 182.86808777 C258.47396612 191.50913875 264.9727223 200.12266281 271.52775574 208.69621277 C277.23047142 216.15668561 282.83841976 223.67961591 288.38957214 231.25334167 C292.68665122 237.1054377 297.0692935 242.88597354 301.49455261 248.64152527 C305.7569609 254.19040588 309.96197148 259.78058798 314.15275574 265.38371277 C318.97595447 271.82921601 323.831705 278.24422186 328.75431824 284.61418152 C332.28413465 289.18720655 335.77867304 293.78716062 339.27775574 298.38371277 C344.23017488 304.88825298 349.18604805 311.39007548 354.15275574 317.88371277 C354.67136169 318.56264587 355.18996765 319.24157898 355.72428894 319.94108582 C358.46731495 323.53042371 361.2198455 327.11200442 363.98478699 330.68449402 C364.56720154 331.43956238 365.14961609 332.19463074 365.74967957 332.97257996 C366.85198806 334.40132989 367.95706553 335.82795014 369.06559753 337.25187683 C372.50064457 341.71166247 375.56856898 346.30723663 378.46525574 351.13371277 C377.80525574 352.12371277 377.14525574 353.11371277 376.46525574 354.13371277 C374.43712902 354.5140295 374.43712902 354.5140295 371.89254761 354.52139282 C370.44782074 354.53624977 370.44782074 354.53624977 368.97390747 354.55140686 C367.91361832 354.54690521 366.85332916 354.54240356 365.76091003 354.5377655 C364.09002823 354.54806038 364.09002823 354.54806038 362.38539124 354.55856323 C358.68662425 354.57693099 354.98827749 354.57297872 351.28947449 354.56730652 C348.72598125 354.57186423 346.16248924 354.57716856 343.59899902 354.58319092 C338.21785448 354.59214219 332.8368723 354.58990937 327.45573425 354.57975769 C321.23902955 354.5682887 315.02275686 354.5823272 308.80610913 354.60915416 C302.82491702 354.63399747 296.84394689 354.63648622 290.86269569 354.63003731 C288.3185587 354.62988373 285.77441354 354.63595794 283.23030663 354.64832878 C279.67247198 354.66318709 276.11558965 354.65259754 272.55778503 354.63542175 C271.50356857 354.64508972 270.44935211 354.65475769 269.3631897 354.66471863 C262.20227332 354.59223957 262.20227332 354.59223957 258.36141968 352.20269775 C255.19146327 348.74382373 255.19146327 348.74382373 253.87931824 346.94621277 C253.20751526 346.03754456 253.20751526 346.03754456 252.5221405 345.11051941 C251.81335754 344.13200012 251.81335754 344.13200012 251.09025574 343.13371277 C250.02933093 341.69470929 248.96811947 340.25591712 247.90666199 338.81730652 C247.34865906 338.05659851 246.79065613 337.2958905 246.21574402 336.51213074 C243.17965779 332.38694914 240.10258141 328.29255419 237.02775574 324.19621277 C236.39595398 323.35364929 235.76415222 322.51108582 235.11320496 321.64299011 C226.66581783 310.38772692 218.12713784 299.20706438 209.41520691 288.15519714 C202.21757807 279.0215097 195.18448526 269.77142631 188.22746277 260.45353699 C182.5571728 252.88285506 176.73248258 245.4327171 170.90055847 237.98625183 C169.40099777 236.05077529 167.92941697 234.09606348 166.46525574 232.13371277 C163.2408132 233.20852695 162.63250907 233.80943335 160.52775574 236.32121277 C159.91674011 237.04050964 159.30572449 237.75980652 158.67619324 238.50090027 C157.58177917 239.80414246 157.58177917 239.80414246 156.46525574 241.13371277 C154.53250771 243.40861517 152.5930896 245.67777939 150.65275574 247.94621277 C150.13616394 248.55142761 149.61957214 249.15664246 149.08732605 249.78019714 C145.8819997 253.52274019 142.61399218 257.19396505 139.27775574 260.82121277 C136.08788729 264.29507586 133.04476679 267.83281302 130.09025574 271.50871277 C126.2230671 276.30511987 122.11544858 280.80412737 117.90715027 285.29728699 C114.78986238 288.64453061 111.82959091 292.06367182 108.96525574 295.63371277 C105.62223614 299.80037487 102.11410436 303.73791089 98.46525574 307.63371277 C94.0065113 312.39460271 89.82727744 317.29839097 85.74259949 322.38761902 C82.80946819 325.92448231 79.69419176 329.2773434 76.56413269 332.6381073 C72.68958297 336.82412038 69.08122683 341.1919089 65.53556824 345.66105652 C59.59381673 352.75752577 59.59381673 352.75752577 55.46525574 354.13371277 C53.70117446 354.22170748 51.93391808 354.25135534 50.16764832 354.24723816 C49.0867543 354.24716263 48.00586029 354.2470871 46.89221191 354.24700928 C45.72651169 354.24184799 44.56081146 354.23668671 43.35978699 354.23136902 C42.1654454 354.22995407 40.97110382 354.22853912 39.74057007 354.2270813 C35.91960666 354.22147626 32.09870149 354.20892287 28.27775574 354.19621277 C25.68986596 354.19119842 23.10197526 354.1866354 20.51408386 354.18254089 C14.16445456 354.1715052 7.81485931 354.15476213 1.46525574 354.13371277 C0.97025574 352.64871277 0.97025574 352.64871277 0.46525574 351.13371277 C2.01994324 348.78605652 2.01994324 348.78605652 4.34025574 346.07121277 C5.17299011 345.09023621 6.00572449 344.10925964 6.86369324 343.09855652 C9.94854536 339.58293676 13.07568245 336.10932424 16.22697449 332.65324402 C18.49372732 330.1016636 20.64065661 327.48199745 22.77775574 324.82121277 C27.18663681 319.36995175 31.90049554 314.25657779 36.68009949 309.13371277 C39.44191915 306.17152037 42.11828008 303.14349937 44.76603699 300.07902527 C46.75932002 297.79705987 48.80018601 295.56142703 50.84025574 293.32121277 C53.95054425 289.87993072 56.93003886 286.37049979 59.84025574 282.75871277 C63.5209742 278.2059077 67.39174222 273.89953866 71.37663269 269.61686707 C75.17910588 265.50610319 78.70788873 261.21104754 82.21916199 256.84855652 C85.34692753 253.06803991 88.67799457 249.48890402 92.00041199 245.87980652 C94.39232871 243.2149611 96.65780457 240.48539452 98.90275574 237.69621277 C102.55990556 233.16186299 106.40871074 228.87728968 110.37687683 224.61882019 C113.4024211 221.35163423 116.24724723 217.99047827 119.02775574 214.50871277 C122.85265865 209.74484452 127.00273614 205.46534356 131.39884949 201.22746277 C133.69687132 198.89903233 135.29049173 197.1048071 135.87931824 193.83293152 C135.29822432 190.04485704 133.24295268 187.78699775 130.84025574 184.94621277 C129.8250599 183.70083009 128.81078134 182.45469926 127.79728699 181.20793152 C127.25539734 180.54841492 126.71350769 179.88889832 126.15519714 179.20939636 C123.22070245 175.60508058 120.37686457 171.93063477 117.52775574 168.25871277 C116.93752625 167.50026062 116.34729675 166.74180847 115.73918152 165.96037292 C111.33822781 160.29340793 107.01415262 154.57231169 102.72331238 148.82170105 C99.67086011 144.73238405 96.58675228 140.67054006 93.46525574 136.63371277 C89.7563406 131.83114317 86.09875469 126.99354642 82.46525574 122.13371277 C78.11579037 116.31818943 73.71950959 110.54241318 69.28166199 104.79386902 C65.71885004 100.1723031 62.18744722 95.5267962 58.65275574 90.88371277 C41.39209054 68.19488938 41.39209054 68.19488938 23.96525574 45.63371277 C18.29375635 38.3530903 12.67628186 31.03065811 7.07463074 23.69621277 C6.20765564 22.56119324 6.20765564 22.56119324 5.32316589 21.40324402 C4.192077 19.92189683 3.06151872 18.44014428 1.93156433 16.95793152 C1.40901062 16.27343933 0.88645691 15.58894714 0.34806824 14.88371277 C-0.1456427 14.23555603 -0.63935364 13.58739929 -1.14802551 12.91960144 C-2.3634239 11.35434806 -3.62893207 9.82827088 -4.90193176 8.30949402 C-6.85108346 5.71217943 -6.89749857 4.30781295 -6.53474426 1.13371277 C-4.14320074 -0.06205899 -2.67003707 0.0053759 0 0 Z M61.46525574 35.13371277 C63.26366111 39.308958 66.0433876 42.72914037 68.77775574 46.32121277 C69.57463806 47.37526306 69.57463806 47.37526306 70.38761902 48.4506073 C72.07631118 50.68126333 73.77020129 52.90788861 75.46525574 55.13371277 C75.99651062 55.83286804 76.5277655 56.53202332 77.07511902 57.25236511 C84.37539453 66.85609279 91.76321829 76.39028264 99.17619324 85.90715027 C105.93292327 94.58433736 112.61382921 103.31406016 119.19963074 112.12199402 C121.92667703 115.74708487 124.68993449 119.34329081 127.46012878 122.93547058 C130.91043544 127.40976888 134.34672216 131.89461972 137.77775574 136.38371277 C138.32746033 137.10292908 138.87716492 137.82214539 139.44352722 138.56315613 C140.56408687 140.02935617 141.68461083 141.49558348 142.80509949 142.96183777 C144.40990667 145.06130317 146.0155349 147.16013741 147.62150574 149.25871277 C170.90741828 179.6886739 170.90741828 179.6886739 181.31144714 193.60099792 C185.11536719 198.68197608 188.9725766 203.71948975 192.85197449 208.74308777 C195.2734684 211.87995964 197.67814287 215.0294816 200.08171082 218.18009949 C205.25721474 224.96371471 210.4670499 231.71867068 215.71525574 238.44621277 C220.23282873 244.23780018 224.68435259 250.06993934 229.07072449 255.96183777 C232.09654538 259.96993983 235.18640197 263.92606393 238.27775574 267.88371277 C242.6865326 273.5315384 247.05398103 279.20481627 251.34025574 284.94621277 C256.19315471 291.44220619 261.06677602 297.9219945 265.96525574 304.38371277 C266.64829773 305.28968201 267.33133972 306.19565125 268.03507996 307.1290741 C268.68235046 307.98138611 269.32962097 308.83369812 269.99650574 309.71183777 C270.56949402 310.46883972 271.1424823 311.22584167 271.73283386 312.00578308 C272.30453308 312.70799988 272.8762323 313.41021667 273.46525574 314.13371277 C274.06458923 314.8754071 274.66392273 315.61710144 275.28141785 316.38127136 C278.23632824 318.7524672 280.11864516 318.62189838 283.87541199 318.59465027 C285.11226746 318.59078308 286.34912292 318.58691589 287.62345886 318.58293152 C288.91187683 318.55843933 290.2002948 318.53394714 291.52775574 318.50871277 C292.82004089 318.50742371 294.11232605 318.50613464 295.44377136 318.50480652 C302.34069859 318.72148917 302.34069859 318.72148917 308.46525574 316.13371277 C302.83380504 308.39314461 297.17047561 300.68864693 291.30754089 293.1212616 C287.98299762 288.82439701 284.71756159 284.48544782 281.46525574 280.13371277 C277.43377643 274.74113748 273.36417751 269.38269868 269.24552917 264.05632019 C266.02619257 259.88430975 262.86638833 255.66988493 259.71525574 251.44621277 C255.4118103 245.68026287 251.02676547 239.98528846 246.59025574 234.32121277 C241.07112736 227.2695025 235.72121496 220.1078636 230.43009949 212.88395691 C226.01218883 206.85710772 221.49258952 200.92317638 216.91740417 195.01457214 C207.92064904 183.3617474 199.04783837 171.62167881 190.34220886 159.74992371 C185.4825389 153.13148942 180.50394018 146.61682009 175.46525574 140.13371277 C169.82103183 132.87147801 164.27918743 125.55092107 158.84025574 118.13371277 C153.07678214 110.27450262 147.206383 102.5029785 141.28703308 94.76066589 C136.84013301 88.94341874 132.42864738 83.10173908 128.04728699 77.23503113 C124.54198418 72.54928689 120.99496127 67.89667042 117.43815613 63.24992371 C111.21174904 55.11422036 105.07729843 46.93893583 99.18791199 38.55558777 C97.67889611 36.29190051 97.67889611 36.29190051 96.46525574 35.13371277 C88.23756958 34.18571479 79.92748473 34.03626459 71.65275574 34.00871277 C70.87037537 34.00412048 70.087995 33.9995282 69.28190613 33.99479675 C65.24288573 33.91596509 65.24288573 33.91596509 61.46525574 35.13371277 Z " fill="#FDFDFD" transform="translate(66.53474426269531,73.86628723144531)"/>
</svg>
